<svg xmlns="http://www.w3.org/2000/svg" height="800" width="1200" version="1.0" viewBox="-28.5 -16.641925 247 99.85155"><path d="M35.3354 34.3846c3.8181-8.5878 9.7248-22.9872 9.7248-22.9872H29.3158s-8.0545 18.8-10.1967 23.7989c-.8385 1.9521-2.1053 3.0143-3.637 2.7795-1.3081-.085-2.1936-1.3014-1.279-3.5666l4.0361-9.7628H4.8841S2.6815 29.133 1.551 32.097C-1.9585 41.2952.0976 50.2944 11.75 51.4594c4.9652.5009 9.215-.7144 12.7122-2.8264-3.8483 5.863-7.0694 11.9016-9.5068 17.9346C33.4582 37.4961 61.5615 13.269 82.9756 0 65.5127 6.6636 48.5385 19.3267 35.3354 34.3846" fill="#e82323"/><path d="M63.0497 41.1522h4.063c2.51 0 5.2492-.3802 7.9571-2.0125 2.6006-1.5597 4.5472-3.9143 5.597-6.3819 1.1941-2.8108.8497-5.3923-.9693-6.8357-1.6939-1.2925-4.5069-1.3663-7.0527-1.3663h-10.636L50.9434 50.6087h8.0891zm2.2338-5.2929l2.6252-6.118h2.2719c1.8224 0 3.4235.7692 2.4396 3.0858-1.033 2.434-3.4839 3.0322-5.3063 3.0322zM98.445 24.1757c-7.9382 0-14.8355 5.6953-18.0845 13.4814-3.0948 7.406-1.0096 13.3283 6.8872 13.3283 7.9024 0 14.936-5.9223 18.0252-13.3283 3.2502-7.786 1.1114-13.4814-6.828-13.4814m-2.188 5.266c3.532 0 1.6033 5.512.4517 8.2635-1.1393 2.7135-3.5923 7.9382-7.2371 7.9382-3.6493 0-1.723-5.2247-.5881-7.9382 1.1538-2.7515 3.8427-8.2635 7.3735-8.2635m30.9254 21.167h-6.7195l2.3848-14.357h-.0772l-9.3748 14.357h-6.9879l3.9266-26.053h7.5212l-2.1478 12.6844h.076l7.642-12.6843h7.9101L129.4173 37.24h.0771l8.4167-12.6843h7.0616zm28.5316 0h-19.5604l10.8776-26.053h19.558l-2.3646 5.4305h-11.7362l-1.7442 4.6868h9.4945l-2.1243 4.9217h-9.4934l-2.3311 5.4952h11.7373zm33.006-24.4586c-1.3886-1.2924-3.7667-1.5943-6.0442-1.5943h-13.2545l-11.081 26.0529h8.0869l.7401-1.7353 7.9896-19.0583h3.2245c.7614 0 1.5954 0 2.1321.3433.6205.4159 1.089 1.4042.4852 2.879-.9235 2.2528-3.7253 2.8879-5.4706 2.8879h-1.543l-.5623 14.6688 8.0533.0034-.6138-10.8485c4.3772-1.5977 6.9454-3.9523 8.3944-7.3702 1.0856-2.548 1.0442-4.8613-.5367-6.2287" fill="#6a6b74"/></svg>